<?xml version="1.0" encoding="utf-8"?>
<!-- Generator: Adobe Illustrator 24.1.0, SVG Export Plug-In . SVG Version: 6.00 Build 0)  -->
<svg version="1.1" id="图层_1" xmlns="http://www.w3.org/2000/svg" xmlns:xlink="http://www.w3.org/1999/xlink" x="0px" y="0px"
	 viewBox="0 0 16 16" style="enable-background:new 0 0 16 16;" xml:space="preserve">
<style type="text/css">
	.st0{fill:url(#SVGID_1_);}
	.st1{fill:#FFFFFF;}
</style>
<linearGradient id="SVGID_1_" gradientUnits="userSpaceOnUse" x1="1.538" y1="16.9785" x2="16.9233" y2="1.5933">
	<stop  offset="0" style="stop-color:#02A6E3"/>
	<stop  offset="1" style="stop-color:#00C9C4"/>
</linearGradient>
<path class="st0" d="M15.5,5H12L9.3,2.3c0.4-0.7,0.2-1.6-0.5-2.1C8.1-0.3,7.1,0,6.7,0.7c-0.3,0.5-0.3,1.1,0,1.6L4,5H0.5
	C0.2,5,0,5.2,0,5.5v10C0,15.8,0.2,16,0.5,16h15c0.3,0,0.5-0.2,0.5-0.5v-10C16,5.2,15.8,5,15.5,5z M7.5,2.9c0.3,0.1,0.7,0.1,1,0
	L10.6,5H5.4L7.5,2.9z"/>
<path class="st1" d="M6.6,8.5H2.9c-0.3,0-0.6-0.3-0.6-0.6l0,0c0-0.3,0.3-0.6,0.6-0.6h3.7c0.3,0,0.6,0.3,0.6,0.6l0,0
	C7.2,8.3,6.9,8.5,6.6,8.5z"/>
<path class="st1" d="M13.1,11.3H2.9c-0.3,0-0.6-0.3-0.6-0.6l0,0c0-0.3,0.3-0.6,0.6-0.6h10.2c0.3,0,0.6,0.3,0.6,0.6l0,0
	C13.7,11,13.4,11.3,13.1,11.3z"/>
<path class="st1" d="M13.1,14H2.9c-0.3,0-0.6-0.3-0.6-0.6l0,0c0-0.3,0.3-0.6,0.6-0.6h10.2c0.3,0,0.6,0.3,0.6,0.6l0,0
	C13.7,13.7,13.4,14,13.1,14z"/>
</svg>
