<?xml version="1.0" encoding="utf-8"?>
<!-- Generator: Adobe Illustrator 24.1.0, SVG Export Plug-In . SVG Version: 6.00 Build 0)  -->
<svg version="1.1" id="Layer_1" xmlns="http://www.w3.org/2000/svg" xmlns:xlink="http://www.w3.org/1999/xlink" x="0px" y="0px"
	 viewBox="0 0 406 306" style="enable-background:new 0 0 406 306;" xml:space="preserve">
<style type="text/css">
	.st0{opacity:0.18;fill:#7192D3;enable-background:new    ;}
	.st1{fill:#7192D3;}
	.st2{fill:url(#SVGID_1_);}
	.st3{fill:url(#SVGID_2_);}
	.st4{opacity:0.44;fill:#7192D3;enable-background:new    ;}
	.st5{fill:url(#SVGID_3_);}
	.st6{fill:url(#SVGID_4_);}
	.st7{fill:url(#SVGID_5_);}
	.st8{fill:#473F47;}
	.st9{fill:url(#SVGID_6_);}
	.st10{fill:#FFBBAB;}
	.st11{fill:#963637;}
	.st12{fill:#FFFFFF;}
	.st13{fill:#212741;}
	.st14{fill:url(#SVGID_7_);}
	.st15{fill:url(#SVGID_8_);}
	.st16{fill:url(#SVGID_9_);}
	.st17{fill:url(#SVGID_10_);}
	.st18{fill:url(#SVGID_11_);}
	.st19{fill:url(#SVGID_12_);}
	.st20{fill:url(#SVGID_13_);}
	.st21{fill:url(#SVGID_14_);}
	.st22{fill:url(#SVGID_15_);}
	.st23{opacity:0.16;fill:#7192D3;enable-background:new    ;}
	.st24{fill:url(#SVGID_16_);}
	.st25{fill:url(#SVGID_17_);}
	.st26{fill:#FC682D;}
	.st27{fill:url(#SVGID_18_);}
	.st28{font-family:'SimHei';}
	.st29{font-size:59.2845px;}
</style>
<path class="st0" d="M134.7,0.5c-21.6,1.8-41.3,12.8-54.4,30C67.6,47.6,62.7,69.1,58.9,90C58,96.1,56.4,102.2,54,108
	c-4.7,10.3-13.6,17.8-21.2,26.2c-19.3,21.4-29.2,50.3-29,78.9c0.1,25.3,8.4,63.2,33.2,75.3c36.6,17.6,78.1,22.1,117.6,12.8
	c24.9-5.9,49-17.4,74.6-16.8c25.6,0.6,49.7,13.2,75.3,14.5c29.4,1.1,57.4-12.7,74.4-36.8c7.2-10.9,12.5-23,15.8-35.6
	c4.3-15.2,6.8-30.9,7.4-46.8c1.9-50.4-32-99.2-74-124.4C234.4-0.7,160.7-1.5,134.7,0.5z"/>
<path class="st1" d="M94.3,243.1c1.9,2.2,4.3,3.8,7,4.9c11.9,5.5,24.3,10.6,37.4,11.7c19.2,1.7,38.1-5.1,56.2-11.7
	c-1.8,0.3-8.4-5.5-10.1-6.7c-3.3-2.2-6.6-4.5-9.8-6.7c-5.2-3.5-11.7-4.7-17.8-5.7c-13.9-2.1-28.1-0.9-41.4,3.5
	C108.1,235,100.9,238.5,94.3,243.1z"/>
<linearGradient id="SVGID_1_" gradientUnits="userSpaceOnUse" x1="-1633.7262" y1="178.466" x2="-1696.7961" y2="124.7361" gradientTransform="matrix(1.4964 -1.0579 -1.0579 -1.4964 2790.863 -1266.2135)">
	<stop  offset="1.000000e-02" style="stop-color:#000000"/>
	<stop  offset="0.13" style="stop-color:#000000;stop-opacity:0.69"/>
	<stop  offset="0.25" style="stop-color:#000000;stop-opacity:0.32"/>
	<stop  offset="1" style="stop-color:#000000;stop-opacity:0"/>
</linearGradient>
<path class="st2" d="M94.3,243.1c1.9,2.2,4.3,3.8,7,4.9c11.9,5.5,24.3,10.6,37.4,11.7c19.2,1.7,38.1-5.1,56.2-11.7
	c-1.8,0.3-8.4-5.5-10.1-6.7c-3.3-2.2-6.6-4.5-9.8-6.7c-5.2-3.5-11.7-4.7-17.8-5.7c-13.9-2.1-28.1-0.9-41.4,3.5
	C108.1,235,100.9,238.5,94.3,243.1z"/>
<path class="st1" d="M157.5,206.2c-7.3-7.8-14.9-15.7-24-21.3c-9.2-5.6-20.4-8.6-30.8-5.9l25.7,37.8c4.9,7.3,10,14.7,16.9,20.2
	c12.1,9.5,34.7,14.8,49.6,10.2c-2.3-7.1-11.5-13.7-16.6-19.1L157.5,206.2z"/>
<linearGradient id="SVGID_2_" gradientUnits="userSpaceOnUse" x1="57.5683" y1="236.879" x2="-39.4717" y2="212.669" gradientTransform="matrix(1.8326 0 0 -1.8326 113.0694 629.8432)">
	<stop  offset="1.000000e-02" style="stop-color:#000000"/>
	<stop  offset="0.13" style="stop-color:#000000;stop-opacity:0.69"/>
	<stop  offset="0.25" style="stop-color:#000000;stop-opacity:0.32"/>
	<stop  offset="1" style="stop-color:#000000;stop-opacity:0"/>
</linearGradient>
<path class="st3" d="M157.5,206.2c-7.3-7.8-14.9-15.7-24-21.3c-9.2-5.6-20.4-8.6-30.8-5.9l25.7,37.8c4.9,7.3,10,14.7,16.9,20.2
	c12.1,9.5,34.7,14.8,49.6,10.2c-2.3-7.1-11.5-13.7-16.6-19.1L157.5,206.2z"/>
<path class="st4" d="M79,266.6c9.6,0,19.6,1.1,27.7,6.1c0.7,0.4,1.3,1,1.7,1.7c0.6,1.8-1.6,3.3-3.5,3.9c-11.5,3.4-23.4,4.9-35.4,4.5
	c-8-0.2-15.9-0.8-23.8-2c-2.8-0.2-5.5-0.9-7.9-2.3c-2.4-1.5-3.6-4.4-2.9-7.1c1-2.7,4.1-4,7-4.1C54.1,266.5,66.7,266.6,79,266.6z"/>
<path class="st4" d="M329.6,259.2l19.4,2.7c0.9,0,1.8,0.3,2.6,0.9c1,1.1,1.2,2.8,0.4,4.1c-0.8,1.2-1.9,2.3-3.2,3.1
	c4.6,1.1,12.6,0.9,12.4,7.4c-0.1,2.5-1.7,4.6-3.9,5.6c-1.4,0.5-2.9,0.7-4.3,0.7c-14.3,0.5-28.9,1-42.8-2.6c-2.7-0.7-5.8-2.2-5.8-4.9
	c0-1,0.4-1.8,0.5-2.9c0.3-6.2-13-2.6-16.4-2.4c-7.6,0.4-15.2,0.7-22.8,0.9c-15.5,0.4-31,0.4-46.5,0.2c-4.9-0.2-9.8,0-14.7,0.6
	c-3.8,0.6-7.5,1.8-11.3,2.8c-12.3,3.1-25.1,3.8-37.7,1.9c-5.7-0.8-12.7-3.9-12.3-9.7c0.3-4.9,5.9-7.5,10.7-8.8
	c7.1-1.9,14.3-3.3,21.5-4.2c12.8-1.4,25.8-2.1,38.7-1.9c28.1-0.2,56.1-0.2,84.2-0.3C307.8,252.5,320.2,257.9,329.6,259.2z"/>
<polygon class="st1" points="71.6,213.6 70.4,270.9 62.6,270.9 60.4,225.4 55.5,270.9 46.6,272.4 44.6,211.8 "/>
<linearGradient id="SVGID_3_" gradientUnits="userSpaceOnUse" x1="529.1241" y1="219.6671" x2="581.3641" y2="188.6071" gradientTransform="matrix(1.8326 0 0 -1.8326 -937.0211 629.8432)">
	<stop  offset="1.000000e-02" style="stop-color:#000000"/>
	<stop  offset="8.000000e-02" style="stop-color:#000000;stop-opacity:0.69"/>
	<stop  offset="0.21" style="stop-color:#000000;stop-opacity:0.32"/>
	<stop  offset="1" style="stop-color:#000000;stop-opacity:0"/>
</linearGradient>
<polygon class="st5" points="71.6,213.6 70.4,270.9 62.6,270.9 60.4,225.4 55.5,270.9 46.6,272.4 44.6,211.8 "/>
<path class="st1" d="M96.9,161.3c-3.5,6.5-7.4,12.8-11.6,18.9c-1.6,1.8-3.9,2.9-6.3,2.9c-1,0-1.9-0.2-2.9-0.4
	c-2.8-0.7-5.5-1.5-8.2-2.4c-0.2-0.1-0.5-0.2-0.7-0.3l0,0c-1.8-1.3-2.2-5-2.6-7.1c-0.2-1.2-1.3-5.8,0.7-6.2c1-0.2,4.3,2.7,5.2,3.3
	c2,1.2,4,2.3,6,3.2c0.2,0.2,0.5,0.2,0.8,0.2c0.3-0.1,0.6-0.3,0.8-0.5c4.2-4.9,7.7-10.4,10.5-16.2c0.8,0.3,1.6,0.7,2.4,1.1
	c1.1,0.6,2.2,1.2,3.2,1.8l0.3,0.2C95.5,160.2,96.1,160.7,96.9,161.3z"/>
<linearGradient id="SVGID_4_" gradientUnits="userSpaceOnUse" x1="-11.7995" y1="226.4117" x2="-24.0995" y2="283.4617" gradientTransform="matrix(1.8326 0 0 -1.8326 113.0694 629.8432)">
	<stop  offset="1.000000e-02" style="stop-color:#000000"/>
	<stop  offset="8.000000e-02" style="stop-color:#000000;stop-opacity:0.69"/>
	<stop  offset="0.21" style="stop-color:#000000;stop-opacity:0.32"/>
	<stop  offset="1" style="stop-color:#000000;stop-opacity:0"/>
</linearGradient>
<path class="st6" d="M96.9,161.3c-3.5,6.5-7.4,12.8-11.6,18.9c-1.6,1.8-3.9,2.9-6.3,2.9c-1,0-1.9-0.2-2.9-0.4
	c-2.8-0.7-5.5-1.5-8.2-2.4c-0.2-0.1-0.5-0.2-0.7-0.3c-0.1,0-0.5-1.4-0.6-1.6c-0.2-0.6-0.3-1.2-0.4-1.8c-0.2-1.2-0.2-2.4,0-3.7
	c0-0.4,0.1-0.7,0.5-0.4s0.2,0.3,0.4,0.5c0.2,0.1,0.6,0.4,0.8,0.6c0.8,0.5,1.5,1.1,2.4,1.6c1.6,0.9,3.3,1.7,5,2.2
	c1.2,0.4,2.4,0.6,3.7,0.5c1.9-0.2,3.5-1.5,4.3-3.2c0.6-1,1.3-2,1.8-3c0.6-1,1.3-2,2-2.9c1.6-1.9,3.2-3.9,4.8-5.8
	c0.8-1.1,1.7-2.2,2.7-3.1C95.5,160.2,96.1,160.7,96.9,161.3z"/>
<linearGradient id="SVGID_5_" gradientUnits="userSpaceOnUse" x1="549.4617" y1="222.3793" x2="521.5517" y2="198.4493" gradientTransform="matrix(1.8326 0 0 -1.8326 -937.0211 629.8432)">
	<stop  offset="1.000000e-02" style="stop-color:#000000"/>
	<stop  offset="8.000000e-02" style="stop-color:#000000;stop-opacity:0.69"/>
	<stop  offset="0.21" style="stop-color:#000000;stop-opacity:0.32"/>
	<stop  offset="1" style="stop-color:#000000;stop-opacity:0"/>
</linearGradient>
<polygon class="st7" points="51.9,270 51.9,216.9 44.6,211.8 47,270.9 "/>
<path class="st1" d="M50.3,163c-2.1,1-4.1,2.2-6,3.4c-4.2,2.7-3.4,3.9-2.6,8.5c1.6,9.8,2.4,19.8,2.4,29.7c-0.2,2.4,0,4.8,0.5,7.2
	c0.7,1.4,1.2,2.8,1.5,4.3c6.4,0.9,21.1,4.2,25.5-2.4c4.4-6.6-3.4-28.7-1.9-38.6c1.4-9.9-11.5-11-11.5-11L50.3,163z"/>
<path class="st8" d="M63.4,199.6l1.5-8.3c0.2-1,1.1-1.8,2.1-1.8l16-1.2c0.9-0.1,1.6,0.6,1.7,1.5c0,0.1,0,0.2,0,0.3l-6.2,27.7
	c-0.2,0.7-0.8,1.2-1.5,1.2H62.3c-0.9,0-1.6-0.7-1.6-1.6c0-0.1,0-0.2,0-0.3L63.4,199.6z"/>
<linearGradient id="SVGID_6_" gradientUnits="userSpaceOnUse" x1="542.1301" y1="237.7851" x2="531.8002" y2="215.7351" gradientTransform="matrix(1.8326 0 0 -1.8326 -937.0212 629.8432)">
	<stop  offset="1.000000e-02" style="stop-color:#000000"/>
	<stop  offset="8.000000e-02" style="stop-color:#000000;stop-opacity:0.69"/>
	<stop  offset="0.21" style="stop-color:#000000;stop-opacity:0.32"/>
	<stop  offset="1" style="stop-color:#000000;stop-opacity:0"/>
</linearGradient>
<path class="st9" d="M59.1,208.9l-11.6,7.8l-1.8-2.4c-1.1-4-1.6-8.2-1.6-12.4c0.3-6.2,0-4,0-4l16.3,10.3L59.1,208.9z"/>
<path class="st10" d="M64.9,153.3c0,0.7,0,1.3-0.1,2c-0.3,1.4-0.8,2.7-1.6,3.9c-0.2,0.4-0.5,0.8-0.8,1.1c-0.7,0.4-1.6,0.4-2.4,0.2
	c-0.2,0-0.4,0-0.6,0c-0.5,0.2-0.5,0.8-0.5,1.3l0.1,2.3c0.1,0.3,0,0.6-0.1,0.9c-0.2,0.2-0.4,0.3-0.6,0.4c-1.7,0.6-3.6,0.1-4.9-1.1
	c-0.3-0.3-0.6-0.6-0.8-1c-0.1-0.4-0.2-0.8-0.3-1.2c-0.3-2.2,0-4.4-0.2-6.6c-0.3-1.8-0.4-3.7-0.2-5.5c0.4-2,1.7-3.6,3.5-4.4
	c1.9-0.6,3.9-0.5,5.8,0.1c0.9,0.3,1.8,0.6,2.7,0.9c0.4,0.1,0.8,0.4,1,0.8c0.3,0.7,0,1.7,0,2.5C64.9,150.9,64.9,152.1,64.9,153.3z"/>
<path class="st11" d="M64.9,144.3c0.2,0.4,0.5,0.8,0.7,1.3c0.3,0.4,0.3,0.9,0.2,1.4c-0.1,0.4-0.4,0.7-0.7,0.9
	c-1.6,1.1-3.6,1.6-5.5,1.4c-0.6,0-1.1,0-1.7,0c-0.6,0.1-1.1,0.3-1.5,0.7c-0.4,0.8-0.7,1.6-0.7,2.5c0,0,0,0.1,0,0.1c0,0,0,0,0,0
	c-0.6,0-1.2-0.6-1.8-0.4c-0.3,0.2-0.5,0.5-0.5,0.8c-0.1,0.4,0,0.8,0.2,1.1c0.1,0.1,0.1,0.3,0.1,0.4c0,0.1,0,0.2,0,0.3l-0.4,1.1
	c-0.1,0.4-0.3,0.8-0.7,1c-0.5,0.2-1.1,0.1-1.5-0.3c-0.3-0.2-0.6-0.4-0.8-0.7c-0.1-0.2-0.2-0.5-0.3-0.8c-0.5-2.7-0.7-5.5-0.6-8.2
	c0-0.6,0-1.2,0.3-1.8c0.7-1.1,1.9-1.9,3.2-2c2.4-0.4,4.9-0.6,7.3-0.5c0.8,0,1.5,0,2.3,0.1c0.8,0.2,1.4,0.5,2,1.1"/>
<path class="st11" d="M61.1,155.8c-0.4,0.2-0.7,0.5-0.9,0.9c0,0,0,0.1,0,0.1c0,0,0,0,0.1,0c0.8,0.1,1.7,0.1,2.5,0
	c0.6,0,1.3-0.2,1.8-0.5c0,0,0.1,0,0.1,0c0,0,0-0.1,0-0.1c0-0.7-0.6-1.2-1.3-1.2c0,0,0,0,0,0C62.7,155.1,61.9,155.4,61.1,155.8z"/>
<path class="st12" d="M52.3,161.9c0,0-1.8,1.2-1.8,2.6c0,1.4,9.7,28.5,9.7,28.5s0.2-26,0-27.2c-0.3-1.2-0.8-2.3-1.3-3.4
	C58.9,162.4,55.2,165.2,52.3,161.9z"/>
<polygon class="st13" points="55.5,164.4 54.9,166.5 56,167.4 56.5,182.1 60.3,193 60.4,181.9 57.1,167.3 58.3,165.2 56.7,164.4 "/>
<path class="st1" d="M62.6,202.7c-1.1,1.4-2.4,2.7-3.8,3.9l-0.9,0.7c-0.3,0.3-0.7,0.5-1.1,0.5c-0.3,0-0.6-0.1-0.8-0.2
	c-5.6-2.2-11.1-4.6-16.5-7.3c-2.2-1.2-4.7-2.7-5.2-5.1c-0.1-0.9-0.1-1.7,0-2.6c0.8-6.3,2.5-12.4,4.9-18.3c0.7-1.6,1.5-4.8,3.3-5.9
	l0,0h0.2l0.3-0.1c2.4-0.9,4.5,1.5,5.1,3.5c0.7,2.9,0.6,6-0.3,8.9c-0.9,2.9-1.6,5.8-2,8.8c-0.1,0.4,0,0.8,0.1,1.2
	c0.2,0.4,0.5,0.7,0.9,0.9L62.6,202.7z"/>
<path class="st13" d="M62.6,270.9l0.4,4.2l2.7,0.5l1.2-1l2,1.6h8c0,0,2-3.5-2.4-4.7l-4.4-1.2L62.6,270.9z"/>
<path class="st13" d="M47,270.9l0.4,4.2l2.7,0.5l1.2-1l2,1.6h8c0,0,2-3.5-2.4-4.7l-4.4-1.2L47,270.9z"/>
<linearGradient id="SVGID_7_" gradientUnits="userSpaceOnUse" x1="539.5641" y1="210.4877" x2="558.8141" y2="206.1577" gradientTransform="matrix(1.8326 0 0 -1.8326 -937.0211 629.8432)">
	<stop  offset="1.000000e-02" style="stop-color:#000000"/>
	<stop  offset="8.000000e-02" style="stop-color:#000000;stop-opacity:0.69"/>
	<stop  offset="0.21" style="stop-color:#000000;stop-opacity:0.32"/>
	<stop  offset="1" style="stop-color:#000000;stop-opacity:0"/>
</linearGradient>
<polygon class="st14" points="60.4,225.4 64,222.5 66.5,270.3 62.6,270.9 "/>
<linearGradient id="SVGID_8_" gradientUnits="userSpaceOnUse" x1="553.2357" y1="248.9335" x2="515.2557" y2="228.6735" gradientTransform="matrix(1.8326 0 0 -1.8326 -937.0212 629.8432)">
	<stop  offset="1.000000e-02" style="stop-color:#000000"/>
	<stop  offset="8.000000e-02" style="stop-color:#000000;stop-opacity:0.69"/>
	<stop  offset="0.21" style="stop-color:#000000;stop-opacity:0.32"/>
	<stop  offset="1" style="stop-color:#000000;stop-opacity:0"/>
</linearGradient>
<path class="st15" d="M58.9,206.6l-0.9,0.7c-0.3,0.3-0.7,0.5-1.1,0.5c-0.3,0-0.6-0.1-0.8-0.2c-5.6-2.2-11.1-4.6-16.5-7.3
	c-2.2-1.2-4.7-2.7-5.2-5.1c-0.1-0.9-0.1-1.7,0-2.6c0.8-6.3,2.5-12.4,4.9-18.3c0.7-1.6,1.5-4.8,3.3-5.9l0,0h0.2l0.3-0.1
	c2.3,0,4.3,1.4,5.1,3.5c0,0-8.5,17.4-8.1,20s18.2,11.1,18.2,11.1L58.9,206.6z"/>
<path class="st10" d="M66.6,204.2c0.5,0.1,0.9,0.3,1.3,0.6c0.4,0.3,0.5,0.8,0.4,1.3c-0.1,0.3-0.3,0.5-0.5,0.8
	c-0.2,0.4-0.3,0.9-0.5,1.3c-0.4,0.7-1.1,1.1-1.8,1.3c-2.1,0.9-4.5,0.7-6.4-0.6c-1.2-1.1-3.7-5.5-1-6.1c1.2-0.1,2.3,0.1,3.5,0.4
	C63.3,203.3,65,203.7,66.6,204.2z"/>
<polygon class="st1" points="296,235.4 217.6,235.4 231.5,196.3 284.3,196.3 "/>
<linearGradient id="SVGID_9_" gradientUnits="userSpaceOnUse" x1="37.5299" y1="270.6065" x2="41.2199" y2="220.8665" gradientTransform="matrix(1.8326 0 0 -1.8326 184.4474 682.9873)">
	<stop  offset="1.000000e-02" style="stop-color:#000000"/>
	<stop  offset="8.000000e-02" style="stop-color:#000000;stop-opacity:0.69"/>
	<stop  offset="0.21" style="stop-color:#000000;stop-opacity:0.32"/>
	<stop  offset="1" style="stop-color:#000000;stop-opacity:0"/>
</linearGradient>
<polygon class="st16" points="296,235.4 217.6,235.4 231.5,196.3 284.3,196.3 "/>
<path class="st1" d="M158.6,54.4h203c7.8,0,14.1,6.3,14.1,14.1v128.4c0,7.8-6.3,14.1-14.1,14.1h-203c-7.8,0-14.1-6.3-14.1-14.1V68.4
	C144.6,60.7,150.9,54.4,158.6,54.4z"/>
<linearGradient id="SVGID_10_" gradientUnits="userSpaceOnUse" x1="142.8654" y1="243.6425" x2="89.5854" y2="225.7425" gradientTransform="matrix(1.8326 0 0 -1.8326 113.0694 629.8432)">
	<stop  offset="1.000000e-02" style="stop-color:#000000"/>
	<stop  offset="8.000000e-02" style="stop-color:#000000;stop-opacity:0.69"/>
	<stop  offset="0.21" style="stop-color:#000000;stop-opacity:0.32"/>
	<stop  offset="1" style="stop-color:#000000;stop-opacity:0"/>
</linearGradient>
<path class="st17" d="M335.6,187.5c-0.1,0.5,0.2,1,0.7,1.2c0.4,0.2,0.9,0.2,1.4,0.2h2.1c0.2,0,0.4,0,0.6,0.1
	c0.2,0.2,0.3,0.5,0.3,0.8l0.2,8.7c0.2,2-0.1,4-0.8,5.9c-0.4,0.9-1.1,1.7-1.6,2.5c-0.5,0.9-0.7,1.9-0.4,2.9c3.5,0.1,7,0.1,10.4,0
	c0.7,0.1,1.3-0.1,1.8-0.5c0.2-0.3,0.4-0.6,0.5-0.9c1-2.9,1.9-5.9,2.5-8.9c0.7-2.8,1-5.8,1-8.7c-0.1-2.9-0.9-5.8-2.4-8.4
	c-0.4-0.6-0.8-1.2-1.4-1.6c-0.6-0.4-1.3-0.6-2-0.8c-3.5-0.8-7-1.3-10.6-1.4c-1.2-0.2-2.4,0-3.5,0.5c-1,0.8-1.6,2-1.4,3.3
	c0.1,1.3,0.5,2.5,1.1,3.7"/>
<linearGradient id="SVGID_11_" gradientUnits="userSpaceOnUse" x1="43.814" y1="235.3196" x2="13.174" y2="239.2596" gradientTransform="matrix(1.8326 0 0 -1.8326 113.0694 629.8432)">
	<stop  offset="1.000000e-02" style="stop-color:#000000"/>
	<stop  offset="8.000000e-02" style="stop-color:#000000;stop-opacity:0.69"/>
	<stop  offset="0.21" style="stop-color:#000000;stop-opacity:0.32"/>
	<stop  offset="1" style="stop-color:#000000;stop-opacity:0"/>
</linearGradient>
<path class="st18" d="M164.4,201.7c2.2-7.2,4.7-14.4,7.5-21.4c0.1-0.3,0.3-0.5,0.6-0.7c0.3-0.1,0.6-0.1,0.9,0l6.1,0.9
	c-0.4,3.4-1.4,6.7-3,9.8c-2.4,5.6-4.1,11.5-5.2,17.5c-0.1,0.6-0.2,1.2-0.5,1.7c-0.6,0.8-1.6,1.2-2.6,1.3c-3,0.6-4.9,1.5-5.5-1.5
	C162.4,206.9,163.7,203.7,164.4,201.7z"/>
<linearGradient id="SVGID_12_" gradientUnits="userSpaceOnUse" x1="15.2223" y1="232.0362" x2="88.0823" y2="244.6662" gradientTransform="matrix(1.8326 0 0 -1.8326 113.0694 629.8432)">
	<stop  offset="1.000000e-02" style="stop-color:#000000"/>
	<stop  offset="8.000000e-02" style="stop-color:#000000;stop-opacity:0.69"/>
	<stop  offset="0.21" style="stop-color:#000000;stop-opacity:0.32"/>
	<stop  offset="1" style="stop-color:#000000;stop-opacity:0"/>
</linearGradient>
<path class="st19" d="M192.9,203.6h6.6c0.5-0.1,0.9,0.1,1.3,0.3c0.3,0.3,0.4,0.7,0.6,1.1c0.5,0.7,1.6,0.7,2.5,0.6
	c3.1-0.4,6.2-1,9.3-1.8l-1.2-8c-5.6,1.2-11.3,1.8-17,1.7l-0.3-9.6h8.6c0.7,0.1,1.4-0.3,1.6-1c0-0.2,0-0.4,0-0.6
	c0-1.2-0.1-2.4-0.2-3.5c0-0.3-0.1-0.5-0.3-0.7c-0.2-0.1-0.5-0.2-0.8-0.1c-6.6,0.9-13.2,1.1-19.9,0.7c-0.4,9.8-2.2,19.5-5.3,28.9
	c3.5-0.4,7.7,0.2,11.1-0.5c1.6-0.4,1.5-0.5,2.1-2.3C191.7,208,192.7,203.6,192.9,203.6z"/>
<path class="st1" d="M343.8,174.8c-2.6,2-5.5,3.5-8.7,4.3c-0.4,0-0.8,0.2-1,0.5c-0.1,0.3-0.1,0.7,0,1c0.5,2.3,1.2,4.5,2.1,6.7
	c4.7-0.6,9.2-2.2,13.2-4.7c0.7-0.4,1.2-0.9,1.7-1.5c0.3-0.7,0.5-1.5,0.5-2.3c0.2-2.2,0.5-5.3-0.8-7.2c-1-1.5-1.6-0.5-2.9,0.4
	L343.8,174.8z"/>
<linearGradient id="SVGID_13_" gradientUnits="userSpaceOnUse" x1="132.8862" y1="244.2444" x2="105.6162" y2="252.2544" gradientTransform="matrix(1.8326 0 0 -1.8326 113.0694 629.8432)">
	<stop  offset="1.000000e-02" style="stop-color:#000000"/>
	<stop  offset="8.000000e-02" style="stop-color:#000000;stop-opacity:0.69"/>
	<stop  offset="0.21" style="stop-color:#000000;stop-opacity:0.32"/>
	<stop  offset="1" style="stop-color:#000000;stop-opacity:0"/>
</linearGradient>
<path class="st20" d="M345.5,174.4c-2.6,2-5.5,3.5-8.7,4.3c-0.4,0-0.8,0.2-1.1,0.5c-0.1,0.3-0.1,0.6,0,1c0.5,2.3,1.2,4.5,2,6.7
	c4.7-0.6,9.2-2.2,13.2-4.7c0.7-0.4,1.2-0.9,1.7-1.5c0.4-0.7,0.6-1.5,0.5-2.3c0.2-2.2,0.5-5.3-0.8-7.2c-1-1.5-1.6-0.5-2.9,0.4
	L345.5,174.4z"/>
<path class="st12" d="M372.2,71.1v106.3H148V71.1c0-7.5,6.1-13.5,13.6-13.5c0,0,0,0,0,0h196.9C366,57.6,372.1,63.6,372.2,71.1
	C372.2,71.1,372.2,71.1,372.2,71.1z"/>
<path class="st0" d="M372.2,71.1v106.3H148V71.1c0-7.5,6.1-13.5,13.6-13.5c0,0,0,0,0,0h196.9C366,57.6,372.1,63.6,372.2,71.1
	C372.2,71.1,372.2,71.1,372.2,71.1z"/>
<rect x="167.4" y="71.6" class="st0" width="73.8" height="67.8"/>
<path class="st1" d="M325.2,240.6c-2.2,2.2-3.5,5.2-3.5,8.4c0,1.6,0.3,3.3,1,4.8c1.4,3.3,4.3,5.8,7.8,6.7v2.7H187.7
	c-6.1,0-11.5-3.9-13.5-9.7c-0.5-1.4-0.7-3-0.7-4.5c0-7.8,6.3-14.2,14.1-14.2c0,0,0,0,0,0h142.9v2.7
	C328.6,238,326.7,239.1,325.2,240.6z"/>
<linearGradient id="SVGID_14_" gradientUnits="userSpaceOnUse" x1="69.3762" y1="259.4547" x2="89.2763" y2="92.1947" gradientTransform="matrix(1.8326 0 0 -1.8326 113.0694 629.8432)">
	<stop  offset="1.000000e-02" style="stop-color:#000000"/>
	<stop  offset="8.000000e-02" style="stop-color:#000000;stop-opacity:0.69"/>
	<stop  offset="0.21" style="stop-color:#000000;stop-opacity:0.32"/>
	<stop  offset="1" style="stop-color:#000000;stop-opacity:0"/>
</linearGradient>
<path class="st21" d="M330.6,260.4v2.7H187.7c-6.1,0-11.5-3.9-13.5-9.7c5.5,1,39.8,6.4,58.9-4.5l89.6,4.8
	C324.2,257.1,327.1,259.5,330.6,260.4z"/>
<path class="st12" d="M191.7,271.1c4,0.2,8.4,0.4,11.9-1.7c0.2-0.1,0.5-0.3,0.6-0.5c0.2-0.4,0.1-0.8-0.1-1.2
	c-0.2-0.3-0.6-0.6-0.9-0.8c-1.3-0.6-2.7-1-4.1-1.2c-1.8-0.3-3.5-0.6-5.3-0.8c-1.1-0.1-3.1-0.6-4,0.3c-0.6,0.9-0.7,1.9-0.4,2.9
	C189.5,269.8,189.9,271,191.7,271.1z"/>
<path class="st12" d="M164.8,266.5c3.2,2.5,6.7,5.1,10.7,5.4c0.3,0,0.6,0,0.8-0.1c0.4-0.2,0.6-0.6,0.6-1c0-0.4-0.1-0.8-0.3-1.2
	c-0.7-1.2-1.6-2.4-2.7-3.3c-1.3-1.2-2.5-2.5-3.9-3.7c-0.9-0.7-2.2-2.2-3.4-2c-1.3,0.2-1.6,1.3-2,2.1
	C163.8,264.2,163.4,265.4,164.8,266.5z"/>
<path class="st12" d="M325.2,240.6c-4.6,4.6-4.6,12.2,0,16.8c1.5,1.5,3.3,2.5,5.3,3.1v0.4h-85.5c-6.6,0-11.9-5.3-11.9-11.9
	s5.3-11.9,11.9-11.9h85.5v0.4C328.6,238,326.7,239.1,325.2,240.6z"/>
<path class="st12" d="M70,189.8l0.4-1.4c0.1-0.3,0.3-0.4,0.6-0.5l8.4-0.6c0.2,0,0.4,0.1,0.5,0.4c0,0.1,0,0.1,0,0.2l-0.5,1.5
	c-0.1,0.3-0.4,0.5-0.7,0.5l-8.1,0.5c-0.3,0-0.5-0.2-0.5-0.5C70,189.9,70,189.8,70,189.8z"/>
<path class="st10" d="M103.2,153.8c-0.6,1.1-1.5,2-2.7,2.6c-1,0.5-2.1,0.9-3.2,1.2c-1.1,0.3-2.1,0.9-2.9,1.8l-0.1,0.2
	c-1.1-0.6-2.1-1.2-3.2-1.8c0.1-0.3,0.4-0.6,0.5-0.9c0.2-0.5,0.4-1.1,0.6-1.6c0.8-1.8,2.1-3.4,3.8-4.5c0.1,0,0.3-0.2,0.4,0
	c0,0.1,0,0.2,0,0.3c0,0.8-0.2,1.5-0.6,2.2l6.6-2.4c0.2-0.1,0.3-0.1,0.5-0.1c0.2,0.1,0.4,0.3,0.5,0.5
	C103.8,152.1,103.7,153,103.2,153.8z"/>
<path class="st8" d="M196.5,261.9v4c-2.4,0.3-4.9,0.4-7.3,0.2c-0.4,0.1-0.8-0.2-0.8-0.6c0-0.1,0-0.2,0-0.2
	c-0.5-6.7,0.3-13.4-0.4-20.1c-0.1-1.4-0.4-2.8-1-4.1c-0.6-1.3-1.4-2.5-2.3-3.7c-2.6-3.5-4.9-7.3-6.8-11.2c-1.9-4-2.8-8.3-2.5-12.7
	c0-4.4,2.3-6.3,6.6-5.1c0.7,0.1,1.3,0.4,1.8,0.7c0.4,0.4,0.8,0.9,1.1,1.4c2.6,4.2,4.9,8.6,6.8,13.1
	C196.3,235.7,196.7,248.9,196.5,261.9z"/>
<linearGradient id="SVGID_15_" gradientUnits="userSpaceOnUse" x1="34.2217" y1="213.0178" x2="59.8017" y2="218.1578" gradientTransform="matrix(1.8326 0 0 -1.8326 113.0694 629.8432)">
	<stop  offset="1.000000e-02" style="stop-color:#000000"/>
	<stop  offset="8.000000e-02" style="stop-color:#000000;stop-opacity:0.69"/>
	<stop  offset="0.21" style="stop-color:#000000;stop-opacity:0.32"/>
	<stop  offset="1" style="stop-color:#000000;stop-opacity:0"/>
</linearGradient>
<path class="st22" d="M196.5,261.9v4c-2.4,0.3-4.9,0.4-7.3,0.2c-0.4,0.1-0.8-0.2-0.8-0.6c0-0.1,0-0.2,0-0.2
	c-0.5-6.7,0.3-13.4-0.4-20.1c-0.1-1.4-0.4-2.8-1-4.1c-0.6-1.3-1.4-2.5-2.3-3.7c-2.6-3.5-4.9-7.3-6.8-11.2c-1.9-4-2.8-8.3-2.5-12.7
	c0-4.4,2.3-6.3,6.6-5.1c0.7,0.1,1.3,0.4,1.8,0.7c0.4,0.4,0.8,0.9,1.1,1.4c2.6,4.2,4.9,8.6,6.8,13.1
	C196.3,235.7,196.7,248.9,196.5,261.9z"/>
<path class="st10" d="M198.8,184.8c8.7-2.4,16.2-8,21-15.7c0.9-1.1,1.2-2.6,0.9-4c0-0.2-0.2-0.3-0.3-0.4c-0.2-0.1-0.5,0-0.8,0.2
	l-11.3,7.3c-3,2.2-6.4,3.9-10,5c-0.5,1.1-0.9,2.3-1.2,3.5C197.3,182.2,197.8,183.6,198.8,184.8z"/>
<rect x="203" y="96.8" class="st12" width="132.4" height="106.7"/>
<path class="st23" d="M221.7,201.4c-0.6,0.4-1.3,0.7-2,0.8c-4.8,1-9.8,1.3-14.7,1c-0.5,0-1-0.1-1.4-0.4c-0.4-0.4-0.6-1-0.6-1.6
	c-0.1-1.5,0-3,0.3-4.5c0-0.2,12-0.2,13.1,0C218,196.9,224.5,199.1,221.7,201.4z"/>
<path class="st23" d="M324.4,159.3c-0.2,1-0.2,1.9,0,2.9c0.4,1.3,1.1,2.6,2,3.7c3.6,5,6.5,10.6,8.4,16.5c0.7-3.3,1-6.6,0.8-9.9
	c0-1.2-0.1-2.3-0.3-3.5c-0.4-1.6-1.1-3.1-1.8-4.6c-1.1-2.3-1.9-4.8-2.4-7.3c-0.4-1.8-1-6.2-3.8-5.9
	C325,151.5,324.6,157.5,324.4,159.3z"/>
<path class="st8" d="M167,217.3c1.1,4.2,2.6,8.3,4.5,12.2c1.6,3.3,5.2,7.6,5.2,11.3c0,6.7-7.1,15.7-11.5,20.4
	c2.3,1.5,4.8,2.8,7.3,3.8c0.6,0.3,1.2,0.4,1.8,0.3c0.7-0.3,1.2-0.9,1.5-1.5l4.7-8.2c2.6-4.6,5.4-9.4,5.6-14.7c0-1.9-0.1-3.8-0.4-5.7
	c-0.5-4,0-8.6-1-12.6c-0.9-3.7-2.1-7.1-2.9-10.8c-0.2-1.9-1.1-3.6-2.5-4.9c-0.7-0.4-1.4-0.8-2.1-0.9c-3.7-1-7.7-1.2-9.7,2.7
	C166.4,211.3,166.1,214.4,167,217.3z"/>
<path class="st12" d="M200,177.6c2,0.7,0.1,5.5-0.4,6.8c-0.1,0.7-0.7,1.1-1.4,1c-0.1,0-0.1,0-0.2,0c-3-0.3-6-0.6-9.1-1.1
	c-0.6-0.1-1.3-0.2-1.8-0.5c-0.7-0.5-1.2-1.3-1.3-2.2c-0.3-1.4-0.4-4.8,0.8-5.9c0.9-0.8,2.7-0.2,3.8-0.1
	C193.6,175.9,196.8,176.6,200,177.6z"/>
<linearGradient id="SVGID_16_" gradientUnits="userSpaceOnUse" x1="38.9044" y1="239.7363" x2="52.0144" y2="253.3163" gradientTransform="matrix(1.8326 0 0 -1.8326 113.0694 629.8432)">
	<stop  offset="1.000000e-02" style="stop-color:#000000"/>
	<stop  offset="8.000000e-02" style="stop-color:#000000;stop-opacity:0.69"/>
	<stop  offset="0.21" style="stop-color:#000000;stop-opacity:0.32"/>
	<stop  offset="1" style="stop-color:#000000;stop-opacity:0"/>
</linearGradient>
<path class="st24" d="M199.3,179.6c2,0.7,0.1,5.5-0.4,6.8c-0.1,0.3-0.3,0.6-0.6,0.9c-0.3,0.1-0.7,0.2-1,0.1c-3-0.3-6-0.6-9.1-1.1
	c-0.7-0.1-1.3-0.3-1.9-0.6c-0.7-0.5-1.2-1.3-1.3-2.2c-0.3-1.4-0.4-4.8,0.8-5.9c0.9-0.8,2.6-0.2,3.8-0.1
	C192.9,177.9,196.2,178.5,199.3,179.6z"/>
<path class="st10" d="M194.1,160.2c0.4,0.6,1.1,1,1.3,1.6c0.2,0.6-0.3,1.6-0.5,2.4c-0.4,1.1-0.3,2.3-0.6,3.4
	c-0.1,0.2-0.2,0.5-0.4,0.6c-0.2,0.1-0.4,0.2-0.6,0.2c-0.8,0.2-1.7,0.2-2.5,0.1c-0.2-0.1-0.3-0.1-0.5,0c-0.1,0.1-0.2,0.3-0.2,0.4
	c-0.5,2.1-0.5,4.3,0,6.4c0.2,0.7,0.4,1.5-0.1,2c-0.2,0.2-0.4,0.3-0.6,0.3c-1.7,0.2-3.3-0.6-4.2-2c-1-1.1-1.8-2.4-2.5-3.7
	c-0.2-0.4-0.3-0.7-0.4-1.2c0-0.5,0.1-1.1,0.2-1.6c0.5-1.7,0.7-3.5,0.8-5.3c-0.1-2.3,0.2-4.6,0.8-6.8c0.3-0.7,0.7-1.4,1.4-1.8
	c0.8-0.4,1.6-0.5,2.5-0.4c1.7-0.1,3.3,0.4,4.6,1.5C193,157.1,193.6,159.4,194.1,160.2z"/>
<path class="st8" d="M193.4,154.8c0.7-0.1,1.2,0.8,0.9,1.4c-0.3,0.6-1,1-1.7,1.1c-0.7,0.1-1.4,0.2-2,0.3c-0.7,0.2-1.2,0.8-1.3,1.5
	c-0.8-0.1-1.5,0.4-1.7,1.1c-0.2,0.7-0.2,1.5,0,2.3c-0.2,0.2-0.6,0-0.8-0.2c-0.2-0.2-0.3-0.5-0.6-0.7c-0.6-0.3-1.3,0.4-1.2,1.1
	c0.2,0.6,0.6,1.2,1.1,1.6c0.1,0.1,0.2,0.2,0.3,0.4c0.2,0.5-0.5,0.9-1.1,1.1c0,0.4,0,0.9-0.1,1.3c-0.1,0.4-0.5,0.7-1,0.7
	c-0.4,0-0.7-0.3-1-0.5s-0.9,0-0.9,0.3c-0.6-1.2,0-2.4-0.2-3.7c-0.2-1.3-1.2-0.7-1.8-1.4c-0.3-0.4-0.3-1-0.5-1.5
	c-0.2-0.5-0.8-1.2-0.9-1.8c-0.3-1.1,0.7-2.2,1.6-2.9c-0.2-0.4-0.1-0.9,0.3-1.3c0.4-0.3,0.8-0.5,1.2-0.5c0.1,0,0.2-0.1,0.3-0.1
	c0.1-0.1,0.1-0.4,0-0.6c-0.3-3.5,5.4-2.5,7.4-2.3c0.9,0.1,1.7,0.4,2.4,0.8C192.4,152.4,194.2,154.7,193.4,154.8z"/>
<path class="st12" d="M182.4,171.3h0.1c3,0.8,7.4,3.5,8.4,6.6c1.4,4.2,1.8,8.6,1.2,13c-0.6,2.8-2.3,5.2-3,7.9
	c-0.5,3-1.2,5.9-2.1,8.8c-0.4,1.3-1.3,2.5-2.4,3.3c-1,0.5-2.2,0.8-3.3,0.7c-3.4,0.2-8.2,1.3-11-1c-2.1-1.9-3.1-4.7-2.9-7.6
	c0.3-2.8,1-5.5,2.2-8.1l4.7-12.3C175.5,179.7,178.2,170.4,182.4,171.3z"/>
<linearGradient id="SVGID_17_" gradientUnits="userSpaceOnUse" x1="28.239" y1="233.9135" x2="57.219" y2="237.3135" gradientTransform="matrix(1.8326 0 0 -1.8326 113.0694 629.8432)">
	<stop  offset="1.000000e-02" style="stop-color:#000000"/>
	<stop  offset="8.000000e-02" style="stop-color:#000000;stop-opacity:0.69"/>
	<stop  offset="0.21" style="stop-color:#000000;stop-opacity:0.32"/>
	<stop  offset="1" style="stop-color:#000000;stop-opacity:0"/>
</linearGradient>
<path class="st25" d="M180,201.6c0.3,0.4,0.4,0.9,0.5,1.4c0,0.4-0.1,0.7-0.2,1.1c-0.5,2-0.7,4.1-0.6,6.1c0,0.4,0.1,0.7,0.3,1
	c0.3,0.2,0.6,0.3,0.9,0.3c1.2,0.2,2.4,0.1,3.5-0.3c1.2-0.7,2.1-1.9,2.6-3.2c1.5-3.7,2.6-7.6,3.4-11.5c0.2-0.6,0.3-1.3,0.2-2
	c-0.3-1-0.9-1.8-1.8-2.3c-0.8-0.6-1.8-1-2.5-1.6c-1.6-1.2-2.7-3.4-4.8-3.7c-1.5-0.1-2.9,0.9-3.3,2.3
	C176.8,192.8,178.2,198.1,180,201.6z"/>
<path class="st12" d="M185.1,180.2c0,0,4.3,11.7,5.2,12.5c0.9,0.9-8.3,6-8.3,6s-6-11.3-5.7-16.3
	C176.5,177.6,181.6,175.6,185.1,180.2z"/>
<path class="st10" d="M181.9,197.2c0.3,2.4,2.6,4,4.9,3.7c0,0,0,0,0,0l7.8-0.1c3.7,0,7.2-0.2,10.8-0.1c0.9,0.1,1.7,0.3,2.6,0.7
	c1.1,0.2,2.3,0.3,3.4,0.2c2.2-0.2,4.4-1.2,6-2.8c1.1-0.8,1.6-2.3,1.2-3.7c-0.1-0.2-0.2-0.3-0.4-0.4c-0.1,0-0.3,0-0.4,0
	c-2.1,0.4-4.3,0.3-6.5-0.1c0.2-0.3,0.3-0.6,0.3-0.9c0-0.3-0.3-0.6-0.6-0.5c-0.2,0.1-0.3,0.2-0.4,0.3c-1.1,1.2-2.6,1.8-4.2,1.7
	c-5.9-0.3-11.7-1.5-17.7-1.8c-1.4-0.1-2.8,0-4.1,0.4C183.2,194.3,182.2,195.6,181.9,197.2z"/>
<path class="st26" d="M343,169.3c-1.5,0.7-2.8,1.6-3.9,2.7c-1.2,1.1-1.9,2.7-1.8,4.3c0.3,1.9,1.4,3.6,3,4.8c1.6,1.4,3.7,3,3.8,5.2
	c1.2-0.9,2.3-1.8,3.5-2.7c2.2-1.3,4.6-2.4,7-3.3c2.5-0.9,4.5-2.7,5.8-4.9c0.6-1.5,0.9-3,1-4.6c0.2-1.7,0.3-3.4,0.1-5.1
	c-0.2-1.7-0.9-3.3-2.1-4.6c-1.9-1.4-4-2.4-6.4-2.7c-2.7,0.1-5,1.8-6,4.2c-0.5,1.3-0.3,2.7-0.7,4C345.6,167.7,344.4,168.7,343,169.3z
	"/>
<path class="st10" d="M322.7,273.2c-0.5,0-0.9,0.2-1.3,0.3c-0.4,0.2-0.7,0.6-0.7,1.1c0.1,0.5,0.4,0.8,0.8,1c0.4,0.2,0.9,0.3,1.3,0.5
	c0.3,0.2,0.7,0.4,1.1,0.6c0.7,0.1,1.4,0,2-0.3c2.9-1,5.9-1.5,8.9-1.5c0.3,0,0.6,0,0.9,0c0.9-0.3,1.6-1.1,1.7-2
	c0.4-1.9,0.4-3.8,0-5.7c0-0.2-0.1-0.4-0.2-0.6c-0.1-0.1-0.3-0.2-0.5-0.3c-3-1.1-4.3,1.8-6.2,3.4
	C328.2,271.6,325.6,272.8,322.7,273.2z"/>
<path class="st1" d="M332.7,273.3h-0.6c-1.3,0.1-2.7,0.2-4,0.1c-0.3,0-0.5-0.1-0.7-0.2c-0.3-0.2-0.5-0.6-0.4-1c0-0.4,0-0.7,0-1.1
	c0-0.1-0.1-0.1-0.1-0.2c-0.1,0-0.1,0-0.2,0c-1,0-2,0.3-3,0.8c-1.9,0.7-3.5,2-4.6,3.7c-0.1,0.1-0.2,0.3-0.2,0.5
	c0,0.1,0.1,0.3,0.2,0.4c1.2,1.8,4.2,1.4,6.1,1c1.9-0.4,4-1.2,6.1-1.6c2.1-0.3,4.8-0.2,6.7-1.4c0.3-0.2,0.6-0.4,0.8-0.8
	c0.4-1.1,0.1-2.4-0.8-3.2c-0.1-0.1-0.2-0.2-0.3-0.2c-0.1,0-0.3,0-0.4,0.1c-0.9,0.6-1.6,1.6-2.5,2.2
	C334.1,273,333.4,273.2,332.7,273.3z"/>
<path class="st1" d="M353.2,196.8c0,0,9.3,5.4,6.7,15.1c-2.3,8.5-8.9,13.9-13,21.1c-2.3,4-1.8,10.6-2.9,15.4c-1.2,5.8-2.9,11.4-5,17
	c-0.4,1.1-1.1,2.4-2.3,2.4c-0.6-0.1-1.1-0.2-1.6-0.3c-0.5,0.1-1.1,0.1-1.6,0c-1.4-0.3-1.4-2.2-1-3.7c1.5-6.5,2.4-13.2,2.7-19.9
	c0.2-5.2-1.2-10.6,0.3-15.7c1.2-4,8.1-25.2,8.1-25.2L353.2,196.8z"/>
<linearGradient id="SVGID_18_" gradientUnits="userSpaceOnUse" x1="160.5752" y1="213.9611" x2="40.8152" y2="224.4811" gradientTransform="matrix(1.8326 0 0 -1.8326 113.0694 629.8432)">
	<stop  offset="1.000000e-02" style="stop-color:#000000"/>
	<stop  offset="8.000000e-02" style="stop-color:#000000;stop-opacity:0.69"/>
	<stop  offset="0.21" style="stop-color:#000000;stop-opacity:0.32"/>
	<stop  offset="1" style="stop-color:#000000;stop-opacity:0"/>
</linearGradient>
<path class="st27" d="M353.2,196.8c0,0,9.3,5.4,6.7,15.1c-2.3,8.5-8.9,13.9-13,21.1c-2.3,4-1.8,10.6-2.9,15.4
	c-1.2,5.8-2.9,11.4-5,17c-0.4,1.1-1.1,2.4-2.3,2.4c-0.6-0.1-1.1-0.2-1.6-0.3c-0.5,0.1-1.1,0.1-1.6,0c-1.4-0.3-1.4-2.2-1-3.7
	c1.5-6.5,2.4-13.2,2.7-19.9c0.2-5.2-1.2-10.6,0.3-15.7c1.2-4,8.1-25.2,8.1-25.2L353.2,196.8z"/>
<path class="st10" d="M342.4,278.4c-0.4,0.1-0.8,0.4-1.2,0.7c-0.4,0.3-0.5,0.8-0.4,1.2c0.2,0.4,0.6,0.7,1,0.8c0.4,0.1,0.9,0,1.3,0.2
	c0.4,0.1,0.8,0.2,1.2,0.3c0.7-0.1,1.3-0.3,1.8-0.8c2.5-1.7,5.3-2.9,8.3-3.7c0.3-0.1,0.6-0.2,0.8-0.3c0.7-0.5,1.1-1.4,1.1-2.3
	c-0.1-1.9-0.6-3.8-1.5-5.5c-0.1-0.2-0.2-0.4-0.3-0.5c-0.2-0.1-0.4-0.2-0.5-0.2c-3.2-0.3-3.7,2.9-5.2,4.9
	C347.2,275.5,345,277.3,342.4,278.4z"/>
<path class="st1" d="M352.1,203.4c2.5,0.4,4.8,1.5,6.6,3.2c3.9,3.3,3.7,10.1,2.3,15.1c-0.7,2.6-4.8,10.8-5.5,13.1
	c-1.2,4.4,1.2,9.9,1.4,14.3c0.3,5.9,0.1,11.8-0.6,17.7c-0.1,1.2-0.5,2.6-1.6,2.9c-0.5,0.1-1.1,0-1.7,0.1c-0.5,0.2-1,0.3-1.5,0.4
	c-1.4,0-1.8-1.8-1.8-3.2c-0.2-6.7-1-13.4-2.4-20c-1.1-5.1-3.8-10-3.7-15.2l0.4-12.8c0.1-4.7-0.5-9.5,0.9-14.1c0.1-0.6,0.4-1,0.8-1.4
	c0.4-0.2,0.9-0.4,1.4-0.4c1.4-0.1,2.8-0.1,4.2,0L352.1,203.4z"/>
<path class="st10" d="M345.3,155.5c-0.3,0.6-1.1,0.9-1.3,1.6c-0.2,0.7,0.3,1.6,0.5,2.4c0.4,1.1,0.3,2.3,0.7,3.4
	c0.1,0.2,0.2,0.5,0.4,0.6c0.2,0.1,0.4,0.2,0.6,0.2c0.8,0.2,1.7,0.2,2.5,0.1c0.2,0,0.3,0,0.5,0c0.1,0.1,0.2,0.3,0.2,0.4
	c0.5,2.1,0.4,4.3-0.1,6.4c-0.2,0.7-0.4,1.5,0.1,2c0.2,0.2,0.4,0.3,0.6,0.3c1.7,0.1,3.3-0.6,4.2-2c1-1.1,1.8-2.4,2.4-3.7
	c0.2-0.4,0.3-0.7,0.4-1.2c0-0.5,0-1.1-0.2-1.6c-0.4-1.7-0.7-3.5-0.8-5.3c0.1-2.3-0.2-4.6-0.8-6.8c-0.3-0.7-0.7-1.4-1.4-1.8
	c-0.8-0.4-1.6-0.5-2.5-0.4c-1.7-0.1-3.3,0.4-4.6,1.5C346.5,152.5,345.8,154.8,345.3,155.5z"/>
<path class="st12" d="M357,166.5c0,0-6.8,3.5-8.9,6.3s-5.5,4.8-4.1,10.1c1.1,4.3-0.1,8.2-0.1,12.4c0,1.2,0.5,2.1,0.5,3.3
	c0,2.1-1.8,3.9-1.1,6c0.5,1.7,2.5,2.5,4.3,3l6.9,2c1.5,0.6,3.1,0.7,4.6,0.1c1.7-1,2.1-3.2,2.3-5.2c0.4-5.1,0.3-11.2,2.3-15.9
	c1.3-2.7,1.7-5.7,1.2-8.7C364.4,176.1,362.7,165.9,357,166.5z"/>
<path class="st26" d="M347.5,151.9c0.1,1.1,0.7,2.2,1.5,2.9c0.8,0.8,1.8,1.3,2.6,2c0.9,0.7,1.4,1.8,1.3,2.9c0.7-0.3,1.5-0.1,1.8,0.6
	c0.2,0.4,0.1,0.9-0.2,1.3c-0.3,0.3-0.7,0.5-1.2,0.5c0.9,0.3,1.6,0.9,2.1,1.7c0.6,0.9,0.9,1.8,1.4,2.8c0.7,0.9,1.5,1.7,2.4,2.3
	c0.4,0.3,0.8,0.7,1.1,1.1c0.2,0.7,0.4,1.4,0.7,2c0.6,0.9,1.3,1.7,2,2.5c0.9,1.4,1.5,3,1.5,4.6c0-0.5,0-1,0-1.5
	c0.2-0.3,0.3-0.6,0.5-0.9c0.3-0.5,0.5-1.1,0.6-1.7c0.2-1.3,0.2-2.7,0.1-4c0-2.9,2.7-8.3,0.5-10.8c-0.9-0.7-1.8-1.4-2.8-2
	c-1.8-1.6-2.2-4.4-3.4-6.6c-1.1-1.9-2.9-3.4-5-3.9C352.3,147,347.2,147.9,347.5,151.9z"/>
<path class="st12" d="M356.8,171c0,0-12.3,2-13.5,1.7c-1.2-0.3-1.2,10.2-1.2,10.2s12.8-0.4,17-3.1
	C363.3,177.1,362.5,171.6,356.8,171z"/>
<path class="st10" d="M343.5,182.1c-2.2,0.9-4.8-0.2-5.6-2.4c0,0,0,0,0,0l-9.8-18c0-1.6-0.9-3.3-0.4-4.8c0.3-0.7,0.8-1.3,1-2
	c0.3-0.9,0.3-1.9,0-2.8c-0.4-0.9-0.8-1.7-1.4-2.5c0.2-0.6,0.8-0.9,1.4-0.8c0.6,0.2,1.1,0.5,1.4,0.9c1.7,1.8,2.6,4.1,2.6,6.5
	c-0.1,0.7-0.1,1.5,0,2.2c0.2,0.5,0.4,1,0.7,1.4c3.2,5,7.1,9.5,10.3,14.5c0.8,1.1,1.4,2.4,1.6,3.8
	C345.4,179.6,344.7,181.1,343.5,182.1z"/>
<path class="st1" d="M352.4,276.7l-0.5,0.1c-1.2,0.3-2.4,0.5-3.7,0.6c-0.2,0.1-0.5,0.1-0.7,0c-0.3-0.2-0.5-0.5-0.5-0.8
	c0-0.3-0.1-0.7-0.2-1c0-0.1-0.1-0.1-0.1-0.2c-0.1,0-0.1,0-0.2,0c-1,0.2-1.9,0.6-2.6,1.1c-1.6,0.9-2.9,2.3-3.7,4
	c-0.1,0.1-0.1,0.3-0.1,0.5c0,0.1,0.1,0.3,0.2,0.3c1.4,1.6,4.1,0.8,5.7,0.2s3.6-1.6,5.5-2.2s4.3-0.8,6-2.1c0.3-0.2,0.5-0.5,0.6-0.8
	c0.2-1.1-0.3-2.2-1.2-2.9c-0.1-0.1-0.2-0.1-0.3-0.1c-0.1,0-0.3,0.1-0.4,0.2c-0.8,0.7-1.2,1.7-2,2.3
	C353.7,276.3,353.1,276.6,352.4,276.7z"/>
<path class="st1" d="M327.8,191.3h-115v-80.1h115.1L327.8,191.3z M213.7,190.3h113v-78h-113V190.3z"/>
<text transform="matrix(1 0 0 1 224.4141 173.0992)" class="st1 st28 st29">404</text>
</svg>
