<?xml version="1.0" encoding="utf-8"?>
<!-- Generator: Adobe Illustrator 24.1.0, SVG Export Plug-In . SVG Version: 6.00 Build 0)  -->
<svg version="1.1" id="Layer_1" xmlns="http://www.w3.org/2000/svg" xmlns:xlink="http://www.w3.org/1999/xlink" x="0px" y="0px"
	 viewBox="0 0 406 306" style="enable-background:new 0 0 406 306;" xml:space="preserve">
<style type="text/css">
	.st0{opacity:0.18;fill:#7192D3;enable-background:new    ;}
	.st1{fill:#7192D3;}
	.st2{fill:url(#SVGID_1_);}
	.st3{fill:#473F47;}
	.st4{fill:#FFFFFF;}
	.st5{opacity:0.35;fill:url(#SVGID_2_);}
	.st6{fill:#FCA89E;}
	.st7{fill:url(#SVGID_3_);}
	.st8{fill:url(#SVGID_4_);}
	.st9{fill:url(#SVGID_5_);}
	.st10{fill:url(#SVGID_6_);}
	.st11{fill:url(#SVGID_7_);}
	.st12{fill:url(#SVGID_8_);}
	.st13{fill:url(#SVGID_9_);}
</style>
<path class="st0" d="M178.5,41.5c-2.9,1.3-5.7,2.8-8.4,4.3c-32.3,18.4-54.9,52.9-90.2,64.3c-9.6,3.1-19.8,3.9-27.6,10.7
	c-5.6,5.1-10.4,10.9-14.4,17.3c-8.5,13.3-14.1,28.2-16.5,43.7c-4.8,30.1,1.9,64,25.9,84.7c18.1,15.5,44.8,16.3,67.4,12.1
	c12.9-2.4,25.3-7.1,38.2-10.2c22.4-5.4,45.7-5.8,68.3-1.2c14.9,3,29.3,8.2,44.2,11.4c10.7,2.3,21.8,3.6,32.8,2.2
	c10.5-1.4,18.6-6.4,28.1-10.4c18.2-7.7,36.5-17.5,48.1-34.1c8.9-13,13-28.6,11.6-44.3c-1.5-15.6-7.8-30.4-18.2-42.2
	c-4.6-5.3-10.6-10-12.9-16.7c-2.2-6.7-2.6-14.6-3.3-21.5c-1.5-15.2-3.4-30.8-10.8-44.1c-8.2-14.8-22.8-25.4-38.7-31.4
	c-15.9-6-33-7.7-50-7.9C226.9,28,201.1,31,178.5,41.5z"/>
<polygon class="st1" points="160.5,259.7 245.3,259.7 230.3,205.8 173.1,205.8 "/>
<linearGradient id="SVGID_1_" gradientUnits="userSpaceOnUse" x1="-3497.7275" y1="432.4795" x2="-3489.5376" y2="542.8695" gradientTransform="matrix(-1.113 0 0 1.113 -3685.1006 -287.49)">
	<stop  offset="1.000000e-02" style="stop-color:#000000"/>
	<stop  offset="8.000000e-02" style="stop-color:#000000;stop-opacity:0.69"/>
	<stop  offset="0.21" style="stop-color:#000000;stop-opacity:0.32"/>
	<stop  offset="1" style="stop-color:#000000;stop-opacity:0"/>
</linearGradient>
<polygon class="st2" points="160.5,259.7 245.3,259.7 230.3,205.8 173.1,205.8 "/>
<path class="st1" d="M329.9,61.6v139.1c0,8.4-6.8,15.2-15.2,15.2l0,0H94.9c-8.4,0-15.2-6.8-15.2-15.2l0,0V61.6
	c0-8.4,6.8-15.2,15.2-15.2h219.7C323.1,46.4,329.9,53.2,329.9,61.6C329.9,61.6,329.9,61.6,329.9,61.6z"/>
<path class="st3" d="M329.9,61.6v122H79.7v-122c0-8.4,6.8-15.2,15.2-15.2h219.7C323.1,46.4,329.9,53.2,329.9,61.6z"/>
<path class="st4" d="M326.1,64.6v115H83.5v-115c0-8.1,6.7-14.6,14.8-14.6c0,0,0,0,0,0h213.1C319.5,49.9,326.1,56.4,326.1,64.6
	C326.1,64.5,326.1,64.5,326.1,64.6z"/>
<path class="st0" d="M326.1,64.6v115H83.5v-115c0-8.1,6.7-14.6,14.8-14.6c0,0,0,0,0,0h213.1C319.5,49.9,326.1,56.4,326.1,64.6
	C326.1,64.5,326.1,64.5,326.1,64.6z"/>
<linearGradient id="SVGID_2_" gradientUnits="userSpaceOnUse" x1="184.6218" y1="532.0899" x2="34.2718" y2="30.3499" gradientTransform="matrix(1.113 0 0 1.113 4.069 -287.49)">
	<stop  offset="1.000000e-02" style="stop-color:#000000"/>
	<stop  offset="8.000000e-02" style="stop-color:#000000;stop-opacity:0.69"/>
	<stop  offset="0.21" style="stop-color:#000000;stop-opacity:0.32"/>
	<stop  offset="1" style="stop-color:#000000;stop-opacity:0"/>
</linearGradient>
<path class="st5" d="M119.6,131.1c-2.4-9.4-6.1-18.4-7.9-27.9c-1.9-9.5-1.9-19.2-1.8-28.9c-0.1-3.2,0.3-6.3,1.2-9.3
	c1.1-3,3.3-5.7,6.4-6.5l4.4,28.8c0.9,5.6,1.7,11.4,3.9,16.7c2.1,5.3,5.6,10.3,10.6,13.1c-1.6-8.2-2.8-16.5-3.3-24.9
	c-0.3-4.6-0.1-10,3.7-12.6c3.3-2.3,8.3-1.1,11.1,1.8c2.9,2.9,4.2,7,5,11c1.2,5.8,1.7,11.8,4.3,17.1c0.9,1.8,3.2,3.7,4.6,2.2
	c0.2-0.3,0.4-0.5,0.5-0.9L177.7,80c1.4-2.8,2.8-6.5,0.8-8.9c-1.5-1.8-4.3-2-6.7-2c-15.4-0.2-30.7-2.4-45.6-6.3
	c10.4-5.1,22.3-6.1,33.9-6.5c9.6-0.3,19.6-0.2,28,4.3c0.5,0.2,0.9,0.5,1.2,0.9c0.3,0.5,0.5,1.1,0.6,1.8c1.4,11.7-0.6,23.5-5.8,34
	c-3.5,6.9-8.2,13.1-11.9,19.9c-10.1,18.7-11.2,41.1-8.9,62.2c-9.5-1-15.6,1.5-25.1,0.5c-2.4-0.3-6.3-0.8-8.8-0.4
	c-1.4,0.2-8.6,0.9-10-0.1c0,0,3.1-13.7,3.2-16.4C123.2,152.3,122.2,141.5,119.6,131.1z"/>
<path class="st4" d="M160.4,124.5c-0.9,0,1.8-5.7,2-6c2-3.3,4.3-6.3,6.8-9.1c2.2-2.6,4.5-5.2,6.9-7.6c2.2-2.2,5.1-5.2,8.6-4.5
	c2.6,0.6,4.2,3.5,4.1,6.2s-1.5,5.2-3,7.4c-2.9,4.6-6.1,8.9-9.2,13.4L160.4,124.5z"/>
<path class="st4" d="M140.1,127.6c0.8,0.2-0.6-6-0.7-6.3c-1.3-3.6-2.9-7.1-4.8-10.4c-1.7-3-3.3-6-5.2-8.9c-1.8-2.6-3.9-6.1-7.5-6.1
	c-2.7,0-4.9,2.6-5.3,5.2s0.4,5.4,1.4,7.9c1.9,5.1,4.1,10,6.3,14.9L140.1,127.6z"/>
<path class="st4" d="M133.4,115.2h34.3c4.9-0.1,9,3.7,9.1,8.7c0,0,0,0,0,0v0.4c0,0-6.5,26.7-6.7,35.7c0,4.9,1.5,19.6,1.5,19.6h-42.4
	c0,0,2-15.3,1.9-20.5c-0.1-8.8-7-34.8-7-34.8c-0.1-4.9,3.8-9,8.7-9.1c0,0,0,0,0,0L133.4,115.2z"/>
<path class="st6" d="M196.6,64.7c0.3-1,0.4-2,0.2-2.9c-0.3-0.9-0.8-1.7-1.6-2.2c-1.8-1.6-4.3-2.3-6.7-1.9c-0.5,0.1-1,0.3-1.4,0.6
	c-0.4,0.3-0.7,0.7-0.9,1.1c-1.2,1.9-2.4,4.2-1.7,6.2c0.6,1,1.2,2,1.8,2.9c0.4,0.7,0.5,1.4,0.9,2.1c0.9,1.7,4.2,4.1,6.2,2.8
	c1-0.6,1.4-2.8,1.7-3.8C195.7,68,196.2,66.4,196.6,64.7z"/>
<path class="st6" d="M111,61.8c-0.3-1-0.4-2-0.2-2.9c0.3-0.9,0.8-1.7,1.6-2.2c1.8-1.6,4.3-2.3,6.7-1.9c0.5,0.1,1,0.3,1.4,0.6
	c0.4,0.3,0.7,0.7,0.9,1.1c1.2,1.9,2.4,4.1,1.7,6.2c-0.6,1-1.2,2-1.8,2.9c-0.4,0.7-0.5,1.4-0.9,2.1c-0.9,1.7-4.2,4.1-6.2,2.8
	c-1-0.6-1.4-2.8-1.7-3.8C111.9,65.1,111.4,63.4,111,61.8z"/>
<path class="st6" d="M155.8,120.2c-0.3,2.1-2.2,3.6-4.3,3.4c-4.2-0.2-4.5-3.4-4.5-3.4v-16.7h8.8V120.2z"/>
<linearGradient id="SVGID_3_" gradientUnits="userSpaceOnUse" x1="134.1441" y1="346.1193" x2="129.6741" y2="383.9492" gradientTransform="matrix(1.113 0 0 1.113 4.069 -287.49)">
	<stop  offset="1.000000e-02" style="stop-color:#000000"/>
	<stop  offset="8.000000e-02" style="stop-color:#000000;stop-opacity:0.69"/>
	<stop  offset="0.21" style="stop-color:#000000;stop-opacity:0.32"/>
	<stop  offset="1" style="stop-color:#000000;stop-opacity:0"/>
</linearGradient>
<path class="st7" d="M147.1,111.8c0,0,5.5,8.6,8.8,4.5v-6.7L147.1,111.8z"/>
<path class="st6" d="M143.4,107.5c2.2,6.8,13.1,7,16.8,1.6c2.1-3.1,2.4-7.2,1.7-11c-0.6-3.7-1.7-7.3-3.3-10.6
	c-1.1-2.1-2.2-4-4.8-4.3c-2.9-0.2-5.8,0.5-8.4,1.9c-5,2.7-7.4,8.5-5.8,14c0.4,1.3,1,2.6,1.7,3.8
	C142.1,104.4,142.8,105.9,143.4,107.5z"/>
<path class="st3" d="M161.5,86.9c-0.5,1.1-1.2,2.2-2,3c-1.8,1.7-4.1,2.8-6.5,3.2c-3.6,0.6-7.2-0.1-10.8-0.4c-0.2,1.2-1,2.2-2.1,2.5
	c0.5,2.5,1.3,5,2.2,7.4c0.9,2.4,2.2,4.6,3.1,6.9c-3-2-5.3-5.6-7.4-8.4c-1.1-1.3-2.1-2.9-2.7-4.5c-0.7-1.7-0.5-3.6,0.5-5.1
	c0.5-0.9,1.1-1.7,1.8-2.5c1-0.7,1.7-1.8,2-3c0.1-1.3-0.6-2.5-0.7-3.7c0-0.2,0-0.4,0.1-0.5c0.1-0.1,0.3-0.2,0.4-0.2l2.6-1
	c-0.2-0.5-0.5-1-0.9-1.5c1.5-0.8,3.2-1.2,4.9-1.1c-0.3-0.8-0.8-1.5-1.3-2.2c1.2-0.5,2.5-0.4,3.6,0.2c1.2,0.5,2.4,1,3.5,1.6
	c0.1-1,0.1-1.9,0.1-2.9c1.5-0.1,3,0.3,4.3,1.2c1.2,0.7,2.4,1.6,3.3,2.6c0.7,0.8,1.2,1.7,1.5,2.7c0.3,1.1,0.9,2,1.1,3.1
	C161.9,85.2,161.8,86.1,161.5,86.9z"/>
<path class="st6" d="M141,103c-0.8,0.1-1.5,0.6-1.9,1.2c-0.2,0.5-0.3,1.1-0.1,1.6c0.2,0.5,0.5,1,0.8,1.4c0.2,0.3,0.4,0.5,0.7,0.7
	c0.4,0.3,0.9,0.4,1.5,0.4c0.4,0,0.8,0,1.2,0c0.2,0,0.4-0.1,0.6-0.1c0.2-0.1,0.3-0.3,0.4-0.6c0.3-0.8,0.3-1.7,0-2.6
	c-0.2-0.8-0.6-1.5-1.1-2.1C142.5,102.5,141.7,102.8,141,103z"/>
<path class="st4" d="M177.9,97.1c-0.7,1.8-1.1,3.8-0.9,5.8c0.5,3.6,3.8,6.1,7.4,5.6c1.8-0.2,3.4-1.2,4.4-2.6c1-1.7,1.7-3.5,1.9-5.5
	c1.7-9.1,3.3-18.3,4.7-27.4c-1.6-0.4-6.7-2.7-8-1.8c-1.4,0.9-2.7,6.7-3.3,8.4c-1.1,2.9-2.2,5.9-3.2,8.9
	C179.8,91.1,179.2,94.5,177.9,97.1z"/>
<path class="st4" d="M114.7,97.4c0.1,2,0.6,3.9,1.5,5.6c2,3.1,6,4,9.1,2c1.5-1,2.6-2.5,2.9-4.2c0.3-1.9,0.1-3.9-0.5-5.8
	c-2.2-9-4.5-18-7-26.9c-1.7,0.3-7.2,0.2-8.1,1.7c-0.9,1.4,0.3,7.1,0.4,9c0.2,3.1,0.4,6.3,0.7,9.4C114.1,91.1,114.9,94.4,114.7,97.4z
	"/>
<path class="st1" d="M122.7,15.2h62.2c3.1,0,5.7,2.5,5.7,5.7V57c0,3.1-2.5,5.7-5.7,5.7h-62.2c-3.1,0-5.7-2.5-5.7-5.7V20.9
	C117,17.8,119.5,15.2,122.7,15.2z"/>
<path class="st1" d="M209.2,137.8H244c0.7,0,1.3,0.6,1.3,1.3v0c0,0.7-0.6,1.3-1.3,1.3h-34.7c-0.7,0-1.3-0.6-1.3-1.3v0
	C208,138.4,208.5,137.8,209.2,137.8z"/>
<path class="st1" d="M252.9,137.8h34.7c0.7,0,1.3,0.6,1.3,1.3v0c0,0.7-0.6,1.3-1.3,1.3h-34.7c-0.7,0-1.3-0.6-1.3-1.3v0
	C251.7,138.4,252.2,137.8,252.9,137.8z"/>
<path class="st1" d="M209.2,143.7h56.3c0.7,0,1.3,0.6,1.3,1.3v0c0,0.7-0.6,1.3-1.3,1.3h-56.3c-0.7,0-1.3-0.6-1.3-1.3v0
	C208,144.3,208.5,143.7,209.2,143.7z"/>
<path class="st1" d="M209.2,149.5H244c0.7,0,1.3,0.6,1.3,1.3v0c0,0.7-0.6,1.3-1.3,1.3h-34.7c-0.7,0-1.3-0.6-1.3-1.3v0
	C208,150.1,208.5,149.5,209.2,149.5z"/>
<path class="st1" d="M252.9,149.5h34.7c0.7,0,1.3,0.6,1.3,1.3v0c0,0.7-0.6,1.3-1.3,1.3h-34.7c-0.7,0-1.3-0.6-1.3-1.3v0
	C251.7,150.1,252.2,149.5,252.9,149.5z"/>
<path class="st1" d="M256.7,114.1c-14.2-0.5-25.6-5.2-25.4-10.5c0-0.4,0.1-4.9,0.3-5.2c0,0,0.6,0.2,0.6,0.1c1.6-4.8,12-4.2,25.2-3.7
	c11.6,0.4,21.8-0.2,24.9,3.9c0.7,0.9,0.6,5.6,0.5,6.6C282.6,110.6,271,114.6,256.7,114.1z"/>
<linearGradient id="SVGID_4_" gradientUnits="userSpaceOnUse" x1="513.1899" y1="202.7561" x2="550.4698" y2="49.5361" gradientTransform="matrix(1.0685 0.3005 -0.3005 1.0685 -256.8728 -221.4342)">
	<stop  offset="1.000000e-02" style="stop-color:#000000"/>
	<stop  offset="8.000000e-02" style="stop-color:#000000;stop-opacity:0.69"/>
	<stop  offset="0.21" style="stop-color:#000000;stop-opacity:0.32"/>
	<stop  offset="1" style="stop-color:#000000;stop-opacity:0"/>
</linearGradient>
<path class="st8" d="M256.7,114.1c-14.2-0.5-25.6-5.2-25.4-10.5c0-0.4,0.2-5.4,0.2-5.4c1.6-4.8,12.6-3.8,25.8-3.3
	c11.6,0.4,22.3,1.4,25.4,5.4c0,0,0.1,4.1,0,5.1C282.6,110.6,271,114.6,256.7,114.1z"/>
<path class="st1" d="M256.7,109.5c-14.2-0.5-25.4-5.1-25.2-10.4v-1c1.6-4.8,12.6-8.3,25.8-7.9c11.6,0.4,21.3,3.6,24.4,7.6
	c0.7,0.8,1,1.8,1,2.9C282.5,106,270.9,110,256.7,109.5z"/>
<linearGradient id="SVGID_5_" gradientUnits="userSpaceOnUse" x1="538.5191" y1="172.8055" x2="508.7991" y2="132.3155" gradientTransform="matrix(1.0685 0.3005 -0.3005 1.0685 -256.8728 -221.4342)">
	<stop  offset="1.000000e-02" style="stop-color:#FFFFFF"/>
	<stop  offset="1" style="stop-color:#FFFFFF;stop-opacity:0"/>
</linearGradient>
<path class="st9" d="M281.7,97.8l-23.6,0.6L231.5,99c0-0.3,0-0.6,0-0.9l0,0c1.2-3.6,7.8-6.6,16.8-7.5c3-0.3,6-0.4,9-0.3
	C268.9,90.5,278.6,93.8,281.7,97.8z"/>
<linearGradient id="SVGID_6_" gradientUnits="userSpaceOnUse" x1="506.7094" y1="182.0211" x2="526.2095" y2="101.8611" gradientTransform="matrix(1.0685 0.3005 -0.3005 1.0685 -256.8728 -221.4342)">
	<stop  offset="1.000000e-02" style="stop-color:#000000"/>
	<stop  offset="8.000000e-02" style="stop-color:#000000;stop-opacity:0.69"/>
	<stop  offset="0.21" style="stop-color:#000000;stop-opacity:0.32"/>
	<stop  offset="1" style="stop-color:#000000;stop-opacity:0"/>
</linearGradient>
<path class="st10" d="M244.6,108l13.5-9.6L231.5,99C231.5,99,230.2,104.4,244.6,108z"/>
<path class="st1" d="M258.7,96.2l-26.9,0.6c0-0.4,0.1-0.7,0.2-1.1l0,0c1.2-3.6,7.9-6.4,16.8-7.4L258.7,96.2z"/>
<polygon class="st1" points="258.1,98.4 258.7,96.2 231.9,96.8 "/>
<linearGradient id="SVGID_7_" gradientUnits="userSpaceOnUse" x1="510.569" y1="150.8792" x2="538.619" y2="183.6792" gradientTransform="matrix(1.0685 0.3005 -0.3005 1.0685 -256.8728 -221.4341)">
	<stop  offset="1.000000e-02" style="stop-color:#000000"/>
	<stop  offset="8.000000e-02" style="stop-color:#000000;stop-opacity:0.69"/>
	<stop  offset="0.21" style="stop-color:#000000;stop-opacity:0.32"/>
	<stop  offset="1" style="stop-color:#000000;stop-opacity:0"/>
</linearGradient>
<polygon class="st11" points="258.1,98.4 258.7,96.2 231.9,96.8 231.5,98.1 "/>
<linearGradient id="SVGID_8_" gradientUnits="userSpaceOnUse" x1="519.2366" y1="154.5669" x2="525.6365" y2="174.3169" gradientTransform="matrix(1.0685 0.3005 -0.3005 1.0685 -256.8728 -221.4341)">
	<stop  offset="1.000000e-02" style="stop-color:#000000"/>
	<stop  offset="8.000000e-02" style="stop-color:#000000;stop-opacity:0.69"/>
	<stop  offset="0.21" style="stop-color:#000000;stop-opacity:0.32"/>
	<stop  offset="1" style="stop-color:#000000;stop-opacity:0"/>
</linearGradient>
<polygon class="st12" points="244.6,108 245.2,105.7 258.5,96.9 258.1,98.4 "/>
<path class="st1" d="M258.5,96.9l-27,1.1c0,0,2.8,5.7,13.7,7.7L258.5,96.9z"/>
<path class="st1" d="M245.2,105.7l-1.8,6.5c0,0-11.1-2.8-12.1-8l0.2-6.2C231.5,98.1,234.7,105.1,245.2,105.7z"/>
<linearGradient id="SVGID_9_" gradientUnits="userSpaceOnUse" x1="490.8963" y1="162.2606" x2="566.0763" y2="164.1306" gradientTransform="matrix(1.0685 0.3005 -0.3005 1.0685 -256.8728 -221.4342)">
	<stop  offset="1.000000e-02" style="stop-color:#000000"/>
	<stop  offset="8.000000e-02" style="stop-color:#000000;stop-opacity:0.69"/>
	<stop  offset="0.21" style="stop-color:#000000;stop-opacity:0.32"/>
	<stop  offset="1" style="stop-color:#000000;stop-opacity:0"/>
</linearGradient>
<path class="st13" d="M245.2,105.7l-1.8,6.5c0,0-11.1-2.8-12.1-8l0.2-6.2C231.5,98.1,234.7,105.1,245.2,105.7z"/>
<polygon class="st1" points="244.5,93.8 240.7,82.2 227.1,77.5 227.2,77.2 241,81.9 241,82 244.9,93.7 "/>
<path class="st1" d="M225.7,78.3c-0.9-0.2-1.4-1-1.2-1.9c0.2-0.9,1-1.4,1.9-1.2l0,0h0.2c0.9,0.2,1.4,1,1.2,1.9
	c-0.2,0.9-1,1.4-1.9,1.2H225.7z M226.4,75.6c-0.7-0.2-1.3,0.2-1.5,0.9c-0.2,0.7,0.2,1.3,0.9,1.5c0.7,0.2,1.3-0.2,1.5-0.9l0,0
	C227.4,76.5,227.1,75.8,226.4,75.6L226.4,75.6z"/>
<polygon class="st1" points="261.4,91.9 261.2,91.6 270.5,83.5 270.6,83.5 284.8,86.6 284.7,86.9 270.6,83.9 "/>
<path class="st1" d="M285.5,88.3c-0.9-0.2-1.4-1.1-1.1-2s1.1-1.4,2-1.1l0,0c0.8,0.2,1.3,1.1,1.1,2l0,0
	C287.2,88.1,286.4,88.5,285.5,88.3z M286.3,85.6c-0.7-0.2-1.3,0.2-1.5,0.9s0.2,1.3,0.9,1.5s1.3-0.2,1.5-0.9c0,0,0,0,0,0
	C287.3,86.4,286.9,85.8,286.3,85.6z"/>
<path class="st1" d="M294.2,123.4c-0.9-0.2-1.4-1.1-1.2-2c0.2-0.9,1.1-1.4,2-1.2c0.8,0.2,1.4,1,1.2,1.9c0,0.1,0,0.1,0,0.2
	C296,123.2,295.1,123.7,294.2,123.4C294.2,123.4,294.2,123.4,294.2,123.4z M294.9,120.7c-0.7-0.2-1.3,0.2-1.5,0.9
	c-0.2,0.7,0.2,1.3,0.9,1.5c0.7,0.2,1.3-0.2,1.5-0.9l0,0C296,121.6,295.6,120.9,294.9,120.7L294.9,120.7z"/>
<polygon class="st1" points="293.2,121.7 279.5,117.9 279.5,117.8 268.4,105.4 268.7,105.1 279.7,117.6 293.3,121.3 "/>
<path class="st1" d="M211.5,102.9c-0.9-0.2-1.3-1.1-1.1-2c0.2-0.9,1.1-1.3,2-1.1c0.8,0.2,1.3,1.1,1.1,2
	C213.3,102.7,212.4,103.2,211.5,102.9C211.5,102.9,211.5,102.9,211.5,102.9z M212.3,100.2c-0.7-0.2-1.3,0.2-1.5,0.9
	c-0.2,0.7,0.2,1.3,0.9,1.5c0.7,0.2,1.3-0.2,1.5-0.9C213.3,101.1,212.9,100.4,212.3,100.2z"/>
<polygon class="st1" points="226.9,105.7 213.3,101.9 213.4,101.6 226.9,105.4 242.8,100.4 242.9,100.7 "/>
<path class="st1" d="M302.4,119h10.7c1.2,0,2.2,1,2.2,2.2l0,0c0,1.2-1,2.2-2.2,2.2h-10.7c-1.2,0-2.2-1-2.2-2.2l0,0
	C300.2,120,301.2,119,302.4,119z"/>
<path class="st1" d="M292.8,83.3h10.7c1.2,0,2.2,1,2.2,2.2l0,0c0,1.2-1,2.2-2.2,2.2h-10.7c-1.2,0-2.2-1-2.2-2.2l0,0
	C290.5,84.3,291.5,83.3,292.8,83.3C292.7,83.3,292.7,83.3,292.8,83.3z"/>
<path class="st1" d="M219.5,68.6h10.7c1.2,0,2.2,1,2.2,2.2l0,0c0,1.2-1,2.2-2.2,2.2h-10.7c-1.2,0-2.2-1-2.2-2.2l0,0
	C217.3,69.6,218.3,68.6,219.5,68.6z"/>
<path class="st1" d="M200.2,105.7h10.7c1.2,0,2.2,1,2.2,2.2l0,0c0,1.2-1,2.2-2.2,2.2h-10.7c-1.2,0-2.2-1-2.2-2.2l0,0
	C198,106.7,199,105.7,200.2,105.7z"/>
<circle class="st4" cx="153.8" cy="39" r="15.2"/>
<path class="st1" d="M153.6,43L153.6,43c-1,0-1.9-0.8-1.9-1.9V30.5c0-1,0.8-1.9,1.9-1.9l0,0c1,0,1.9,0.8,1.9,1.9v10.6
	C155.5,42.1,154.6,43,153.6,43z"/>
<path class="st1" d="M153.6,49.3L153.6,49.3c-1.3,0-2.3-1-2.3-2.3v0c0-1.3,1-2.3,2.3-2.3l0,0c1.3,0,2.3,1,2.3,2.3v0
	C155.8,48.3,154.8,49.3,153.6,49.3z"/>
</svg>
