<svg xmlns="http://www.w3.org/2000/svg" viewBox="0 0 16 16">
  <circle fill="currentColor" cx="0.72" cy="2.18" r="0.72" />
  <circle fill="currentColor" cx="3.63" cy="2.18" r="0.72" />
  <circle fill="currentColor" cx="6.54" cy="2.18" r="0.72" />
  <circle fill="currentColor" cx="9.46" cy="2.18" r="0.72" />
  <circle fill="currentColor" cx="12.37" cy="2.18" r="0.72" />
  <circle fill="currentColor" cx="15.28" cy="2.18" r="0.72" />
  <circle fill="currentColor" cx="0.72" cy="5.09" r="0.72" />
  <circle fill="currentColor" cx="3.63" cy="5.09" r="0.72" />
  <circle fill="currentColor" cx="6.54" cy="5.09" r="0.72" />
  <circle fill="currentColor" cx="9.46" cy="5.09" r="0.72" />
  <circle fill="currentColor" cx="12.37" cy="5.09" r="0.72" />
  <circle fill="currentColor" cx="15.28" cy="5.09" r="0.72" />
  <circle fill="currentColor" cx="0.72" cy="8" r="0.72" />
  <circle fill="currentColor" cx="3.63" cy="8" r="0.72" />
  <circle fill="currentColor" cx="6.54" cy="8" r="0.72" />
  <circle fill="currentColor" cx="9.46" cy="8" r="0.72" />
  <circle fill="currentColor" cx="12.37" cy="8" r="0.72" />
  <circle fill="currentColor" cx="15.28" cy="8" r="0.72" />
  <circle fill="currentColor" cx="0.72" cy="10.91" r="0.72" />
  <circle fill="currentColor" cx="3.63" cy="10.91" r="0.72" />
  <circle fill="currentColor" cx="6.54" cy="10.91" r="0.72" />
  <circle fill="currentColor" cx="9.46" cy="10.91" r="0.72" />
  <circle fill="currentColor" cx="12.37" cy="10.91" r="0.72" />
  <circle fill="currentColor" cx="15.28" cy="10.91" r="0.72" />
  <circle fill="currentColor" cx="0.72" cy="13.82" r="0.72" />
  <circle fill="currentColor" cx="3.63" cy="13.82" r="0.72" />
  <circle fill="currentColor" cx="6.54" cy="13.82" r="0.72" />
  <circle fill="currentColor" cx="9.46" cy="13.82" r="0.72" />
  <circle fill="currentColor" cx="12.37" cy="13.82" r="0.72" />
  <circle fill="currentColor" cx="15.28" cy="13.82" r="0.72" /></svg>
